# xmcd
#
# Track frame offsets: 
#        150
#        10901
#        72904
#        101594
#        128503
#        146650
#        179716
#        224548
#
# Disc length: 3300 seconds
#
# Revision: 0
# Processed by: cddbd v1.5.2PL0 Copyright (c) Steve Scherf et al.
# Submitted via: ExactAudioCopy v0.95b3
#
DISCID=760ce208
DTITLE=Johnny Winter - Live Bootleg Series, Vol. 5 (2009)  FLAC
DYEAR=1900
DGENRE=
TTITLE0=Introduction
TTITLE1=Third Degree
TTITLE2=Talk Is Cheap
TTITLE3=You're Humbuggin' Me
TTITLE4=Light's Out
TTITLE5=You Keep Sayin' That You're Leaving
TTITLE6=New York New York
TTITLE7=Rock And Roll Hoochie Koo (Bonus Track)
EXTD=
EXTT0=
EXTT1=
EXTT2=
EXTT3=
EXTT4=
EXTT5=
EXTT6=
EXTT7=
PLAYORDER=
